<svg xmlns="http://www.w3.org/2000/svg" width="100" height="100">
<path d="M0 0 C0.7354303 -0.00700928 1.4708606 -0.01401855 2.22857666 -0.02124023 C4.65537467 -0.03882069 7.08100299 -0.02719827 9.5078125 -0.01367188 C11.1964541 -0.0163668 12.88509418 -0.02024922 14.57373047 -0.02526855 C18.11115304 -0.03116364 21.64817133 -0.02260061 25.18554688 -0.00390625 C29.71870095 0.01888364 34.25090777 0.00576057 38.7840271 -0.01819611 C42.27049897 -0.03265401 45.75674645 -0.0280482 49.2432251 -0.01768494 C50.91457227 -0.01501761 52.58593985 -0.01828764 54.25726318 -0.02760315 C56.59393225 -0.03776907 58.92906994 -0.02226936 61.265625 0 C61.95561584 -0.00809692 62.64560669 -0.01619385 63.35650635 -0.02453613 C66.58180274 0.03237787 68.40009476 0.35437143 71.06488037 2.22320557 C72.9497643 4.98137723 73.11914167 6.42567337 73.08691406 9.74511719 C73.08661194 10.78589417 73.08630981 11.82667114 73.08599854 12.89898682 C73.06535339 14.0157782 73.04470825 15.13256958 73.0234375 16.28320312 C73.01777771 17.43173767 73.01211792 18.58027222 73.00628662 19.76361084 C72.98389581 23.43202387 72.93369192 27.09946029 72.8828125 30.76757812 C72.86275111 33.25454319 72.84449972 35.74152356 72.828125 38.22851562 C72.78402205 44.32520301 72.71708199 50.4213208 72.6328125 56.51757812 C74.6128125 56.51757812 76.5928125 56.51757812 78.6328125 56.51757812 C79.04085051 60.67956578 79.16962497 62.791865 76.63720703 66.21542358 C72.83094184 69.13202146 69.85810271 69.22447293 65.25 69.16455078 C64.41849426 69.17331238 63.58698853 69.18207397 62.73028564 69.19110107 C59.9889263 69.21306051 57.24918748 69.19855524 54.5078125 69.18164062 C52.59879243 69.18500977 50.68977445 69.18986321 48.78076172 69.19613647 C44.78266955 69.2035031 40.78513648 69.19280907 36.78710938 69.16943359 C31.66543069 69.14094591 26.54506203 69.15735101 21.4234314 69.18729591 C17.48224031 69.20537457 13.54135918 69.19960826 9.60015869 69.18665695 C7.71193283 69.18332451 5.8236787 69.18740434 3.93548584 69.19905472 C1.29477545 69.21177296 -1.3438218 69.19237436 -3.984375 69.16455078 C-4.76270691 69.17467194 -5.54103882 69.18479309 -6.34295654 69.19522095 C-10.31055335 69.11787773 -12.18684457 68.65576813 -15.37158203 66.21542358 C-17.90399997 62.791865 -17.77522551 60.67956578 -17.3671875 56.51757812 C-15.3871875 56.51757812 -13.4071875 56.51757812 -11.3671875 56.51757812 C-11.37606995 55.87500061 -11.38495239 55.2324231 -11.394104 54.57037354 C-11.48254398 47.88717538 -11.54290804 41.20414322 -11.58691406 34.52050781 C-11.60703914 32.02564747 -11.63434202 29.53083435 -11.66894531 27.03613281 C-11.71742207 23.45170444 -11.7401477 19.86789928 -11.7578125 16.28320312 C-11.77845764 15.16641174 -11.79910278 14.04962036 -11.82037354 12.89898682 C-11.82067566 11.85820984 -11.82097778 10.81743286 -11.82128906 9.74511719 C-11.83017151 8.83022522 -11.83905396 7.91533325 -11.84820557 6.97271729 C-10.56562196 0.42634938 -5.80640005 -0.06813711 0 0 Z M-7.3671875 8.51757812 C-7.96293674 10.65169666 -7.96293674 10.65169666 -7.88476562 12.94726562 C-7.89737427 13.81496582 -7.90998291 14.68266602 -7.92297363 15.57666016 C-7.91487671 16.50591309 -7.90677979 17.43516602 -7.8984375 18.39257812 C-7.9022644 19.35405762 -7.90609131 20.31553711 -7.91003418 21.30615234 C-7.91275352 23.33692473 -7.90539079 25.36773212 -7.88867188 27.3984375 C-7.86726275 30.50665383 -7.88847296 33.61255868 -7.9140625 36.72070312 C-7.91141923 38.69466656 -7.90629426 40.66862856 -7.8984375 42.64257812 C-7.90653442 43.57183105 -7.91463135 44.50108398 -7.92297363 45.45849609 C-7.91036499 46.32619629 -7.89775635 47.19389648 -7.88476562 48.08789062 C-7.88158325 48.84859863 -7.87840088 49.60930664 -7.87512207 50.39306641 C-7.13450393 53.49081171 -5.91672846 54.63876959 -3.3671875 56.51757812 C-0.25320564 57.12307749 -0.25320564 57.12307749 3.265625 57.03515625 C4.2517276 57.04567017 4.2517276 57.04567017 5.25775146 57.05639648 C7.42487167 57.07396244 9.59067966 57.06236048 11.7578125 57.04882812 C13.26709239 57.05152349 14.77637058 57.05540628 16.28564453 57.0604248 C19.44645749 57.06631789 22.60681784 57.05776363 25.76757812 57.0390625 C29.81649807 57.01627232 33.86435748 57.02939652 37.91323853 57.05335236 C41.02913383 57.0678159 44.14477824 57.06320196 47.26068115 57.05284119 C48.7533989 57.0501754 50.24613954 57.0534385 51.73883057 57.0627594 C53.82649954 57.07293508 55.91245824 57.05741381 58 57.03515625 C59.18706543 57.03197388 60.37413086 57.0287915 61.59716797 57.0255127 C65.27840975 56.40955455 66.46672442 55.52277405 68.6328125 52.51757812 C69.22856174 50.38345959 69.22856174 50.38345959 69.15039062 48.08789062 C69.16299927 47.22019043 69.17560791 46.35249023 69.18859863 45.45849609 C69.18050171 44.52924316 69.17240479 43.59999023 69.1640625 42.64257812 C69.1678894 41.68109863 69.17171631 40.71961914 69.17565918 39.72900391 C69.17837852 37.69823152 69.17101579 35.66742413 69.15429688 33.63671875 C69.13288775 30.52850242 69.15409796 27.42259757 69.1796875 24.31445312 C69.17704423 22.34048969 69.17191926 20.36652769 69.1640625 18.39257812 C69.17215942 17.4633252 69.18025635 16.53407227 69.18859863 15.57666016 C69.17598999 14.70895996 69.16338135 13.84125977 69.15039062 12.94726562 C69.14720825 12.18655762 69.14402588 11.42584961 69.14074707 10.64208984 C68.40012893 7.54434454 67.18235346 6.39638666 64.6328125 4.51757812 C61.51883064 3.91207876 61.51883064 3.91207876 58 4 C57.0138974 3.98948608 57.0138974 3.98948608 56.00787354 3.97875977 C53.84075333 3.96119381 51.67494534 3.97279577 49.5078125 3.98632812 C47.99853261 3.98363276 46.48925442 3.97974997 44.97998047 3.97473145 C41.81916751 3.96883836 38.65880716 3.97739262 35.49804688 3.99609375 C31.44912693 4.01888393 27.40126752 4.00575973 23.35238647 3.98180389 C20.23649117 3.96734035 17.12084676 3.97195429 14.00494385 3.98231506 C12.5122261 3.98498085 11.01948546 3.98171775 9.52679443 3.97239685 C7.43912546 3.96222117 5.35316676 3.97774244 3.265625 4 C2.07855957 4.00318237 0.89149414 4.00636475 -0.33154297 4.00964355 C-4.01278475 4.6256017 -5.20109942 5.5123822 -7.3671875 8.51757812 Z " fill="#0652DD" transform="translate(19.3671875,15.482421875)"/>
<path d="M0 0 C3.96 0 7.92 0 12 0 C12 13.2 12 26.4 12 40 C8.04 40 4.08 40 0 40 C0 26.8 0 13.6 0 0 Z " fill="#0652DD" transform="translate(44,26)"/>
<path d="M0 0 C3.96 0 7.92 0 12 0 C12 10.56 12 21.12 12 32 C8.04 32 4.08 32 0 32 C0 21.44 0 10.88 0 0 Z " fill="#0652DD" transform="translate(60,34)"/>
<path d="M0 0 C3.96 0 7.92 0 12 0 C12 7.26 12 14.52 12 22 C8.04 22 4.08 22 0 22 C0 14.74 0 7.48 0 0 Z " fill="#0652DD" transform="translate(28,44)"/>
</svg>
